# xmcd CD database file
#
# Track frame offsets:
#	150
#	30407
#	48492
#	61807
#	72530
#	82227
#	104175
#	118022
#	137195
#	158520
#	186660
#	206012
#	221527
#	238195
#	256125
#	280220
#	295865
#
# Disc length: 4206 seconds
#
# Revision: 1
# Processed by: cddbd v1.5.1PL0 Copyright (c) Steve Scherf et al.
# Submitted via: CDex 1.51
#
DISCID=10106c11
DTITLE=Ella Fitzgerald - day dreams: best of the Duke Ellington songbook
DYEAR=1995
DGENRE=Jazz
TTITLE0=Take the "A" Train
TTITLE1=Day Dream
TTITLE2=Everything but You
TTITLE3=Azure
TTITLE4=Solitude
TTITLE5=The E and D Blues (E for Ella, D for Duke)
TTITLE6=Bli-Blip
TTITLE7=It Don't Mean a Thing (if It Ain't Got That Swing)
TTITLE8=I Ain't Got Nothin' but the Blues
TTITLE9=I Got It Bad (and That Ain't Good)
TTITLE10=Just Squeeze Me
TTITLE11=Cotton Tail
TTITLE12=Squatty Roo
TTITLE13=Rocks in My Bed
TTITLE14=Rockin' in Rhythm
TTITLE15=Mood Indigo
TTITLE16=All Too Soon
EXTD=YEAR: 1995
EXTT0=
EXTT1=
EXTT2=
EXTT3=
EXTT4=
EXTT5=
EXTT6=
EXTT7=
EXTT8=
EXTT9=
EXTT10=
EXTT11=
EXTT12=
EXTT13=
EXTT14=
EXTT15=
EXTT16=
PLAYORDER=
